<svg width="35" height="30" viewBox="0 0 35 30" fill="none" xmlns="http://www.w3.org/2000/svg">
<path d="M7.65209 22.2618C7.47725 21.2504 7.58586 20.2479 7.71832 19.2454C7.80905 18.5563 8.24087 18.1887 8.98992 18.19C9.12635 18.19 9.26278 18.19 9.39921 18.19C11.2066 18.1315 11.8901 18.1038 11.8835 20.3561C11.8835 20.7337 11.9775 20.9326 12.4351 20.898C12.9233 20.8615 13.4173 20.8923 13.9087 20.8886C14.0942 20.8886 14.275 20.9074 14.4386 20.7627C16.1493 19.2687 18.815 19.2429 20.5316 20.6954C20.7303 20.8634 22.7695 20.9905 22.9549 20.8432C23.102 20.7262 23.0483 20.5588 23.0642 20.4096C23.1093 19.9981 23.1232 19.5814 23.206 19.1768C23.3278 18.584 23.6921 18.2076 24.3736 18.1913H24.455C26.7234 18.2322 27.2453 17.7929 27.4075 20.5701C27.4784 21.7658 27.3837 22.9502 27.2684 24.1302C27.1843 24.9974 26.5267 25.2139 24.6266 25.1478C23.7146 25.1164 23.2854 24.7702 23.1907 23.9955C22.9814 22.2095 22.9814 22.2152 21.0701 22.3882C20.8303 22.4103 20.6542 22.4455 20.5667 22.6853C20.3091 23.3927 19.6766 23.6356 18.9878 23.7463C17.9381 23.924 16.8624 23.9104 15.8181 23.7061C15.3373 23.6085 14.8949 23.4159 14.5737 23.0245C14.4055 22.8193 14.5074 22.4059 14.0922 22.4002C13.4107 22.3908 12.7272 22.3845 12.0484 22.4348C11.8285 22.4505 11.9033 22.7306 11.8894 22.903C11.7126 25.0918 11.6079 25.1825 9.28993 25.146C8.15676 25.1283 7.72428 24.7457 7.65673 23.6582C7.62825 23.1944 7.65209 22.7275 7.65209 22.2618Z" fill="black" fill-opacity="0.8"/>
<path d="M19.4193 18.7824C18.2835 18.4897 17.1874 18.4262 16.0827 18.6773C15.6814 18.7685 15.4906 18.7471 15.6145 18.243C15.8218 17.4016 15.7251 16.4753 16.5371 15.8333C16.6404 15.7515 16.6139 15.4992 16.6145 15.3255C16.619 13.3804 16.619 11.435 16.6145 9.4891C16.6145 8.71314 16.1927 8.33492 15.3721 8.328C15.0992 8.328 14.8257 8.328 14.5528 8.328C13.3369 8.328 13.3375 8.328 13.1905 9.46456C13.1773 9.56714 13.1905 9.6886 13.1362 9.7679C12.5805 10.5785 11.7116 10.2153 10.9639 10.2537C10.4009 10.2827 10.1142 9.88999 10.1029 9.40666C10.0691 8.18829 10.0877 6.96865 10.0917 5.74965C10.0971 5.64715 10.1229 5.54656 10.1678 5.45323C10.4248 4.87048 11.1745 4.71944 12.4487 4.93844C13.0845 5.04732 13.2687 5.45134 13.1892 5.9504C13.0567 6.76853 13.4541 6.88621 14.1892 6.83146C15.1509 6.76349 16.1311 6.95166 17.0139 6.34939C17.4113 6.07878 17.9193 6.20842 18.3199 6.47903C19.3876 7.19961 20.5817 6.67916 21.7095 6.7937C22.0513 6.82768 21.9082 6.43121 21.9148 6.2273C21.9288 5.72762 21.8718 5.14297 22.4957 4.99068C23.2242 4.81321 24.013 4.73895 24.7223 5.10018C24.9945 5.23989 25.0329 5.57029 25.0336 5.86292C25.0336 7.00452 25.0336 8.14549 25.0382 9.28709C25.0382 9.92649 24.6826 10.2361 24.0335 10.267C23.7335 10.2814 23.4328 10.2745 23.1321 10.267C22.244 10.2518 21.8804 9.98313 21.9453 9.16437C22.0056 8.39659 21.6804 8.24493 20.9843 8.31352C20.5254 8.35883 20.0571 8.32044 19.5935 8.32233C18.6769 8.32674 18.1537 8.81509 18.1524 9.67476C18.1524 11.4904 18.1524 13.306 18.1491 15.1222C18.1491 15.4646 18.11 15.788 18.5676 15.9359C18.8451 16.0253 18.916 16.3274 19.0074 16.5621C19.2769 17.2726 19.369 18.0102 19.4193 18.7824Z" fill="black" fill-opacity="0.8"/>
</svg>
